<?xml version="1.0" encoding="UTF-8"?>
<svg xmlns="http://www.w3.org/2000/svg" xmlns:xlink="http://www.w3.org/1999/xlink" width="2500" height="2500" viewBox="0 0 2500 2500">
<defs>
<clipPath id="clip-0">
<path clip-rule="nonzero" d="M 1097 973 L 1505 973 L 1505 1380 L 1097 1380 Z M 1097 973 "/>
</clipPath>
<clipPath id="clip-1">
<path clip-rule="evenodd" d="M 1477.25 1279.160156 C 1508.078125 1225.75 1511.96875 1164.179688 1493.121094 1110.191406 C 1474.691406 1057.371094 1434.039062 1034.550781 1387.230469 1076.621094 C 1314.449219 1142.03125 1442.988281 1275.328125 1335.988281 1377.921875 C 1393.28125 1367.871094 1445.890625 1333.480469 1477.25 1279.160156 Z M 1124.558594 1279.160156 C 1155.398438 1332.570312 1206.78125 1366.71875 1262.960938 1377.398438 C 1317.921875 1387.839844 1358.011719 1364.039062 1344.980469 1302.46875 C 1324.71875 1206.738281 1145.011719 1251.410156 1109.660156 1107.449219 C 1089.71875 1162.089844 1093.199219 1224.851562 1124.558594 1279.160156 Z M 1300.910156 973.730469 C 1363.621094 973.730469 1419.710938 1002.089844 1457.058594 1046.679688 C 1314.710938 1005.308594 1263.539062 1183.28125 1170.511719 1152.960938 C 1110.671875 1133.460938 1110.101562 1086.839844 1146.640625 1044.460938 C 1183.96875 1001.148438 1239.230469 973.730469 1300.910156 973.730469 "/>
</clipPath>
<linearGradient id="linear-pattern-0" gradientUnits="userSpaceOnUse" x1="-0.356601" y1="0" x2="1.283044" y2="0" gradientTransform="matrix(164.353, -303.085, 303.085, 164.353, 1224.03, 1320.81)">
<stop offset="0" stop-color="rgb(89.393616%, 2.032471%, 50.392151%)" stop-opacity="1"/>
<stop offset="0.125" stop-color="rgb(89.393616%, 2.032471%, 50.392151%)" stop-opacity="1"/>
<stop offset="0.1875" stop-color="rgb(89.393616%, 2.032471%, 50.392151%)" stop-opacity="1"/>
<stop offset="0.21875" stop-color="rgb(89.393616%, 2.049255%, 50.32959%)" stop-opacity="1"/>
<stop offset="0.222656" stop-color="rgb(89.399719%, 2.165222%, 49.882507%)" stop-opacity="1"/>
<stop offset="0.226562" stop-color="rgb(89.404297%, 2.26593%, 49.497986%)" stop-opacity="1"/>
<stop offset="0.230469" stop-color="rgb(89.408875%, 2.366638%, 49.113464%)" stop-opacity="1"/>
<stop offset="0.234375" stop-color="rgb(89.413452%, 2.467346%, 48.728943%)" stop-opacity="1"/>
<stop offset="0.238281" stop-color="rgb(89.41803%, 2.555847%, 48.387146%)" stop-opacity="1"/>
<stop offset="0.242188" stop-color="rgb(89.422607%, 2.645874%, 48.046875%)" stop-opacity="1"/>
<stop offset="0.246094" stop-color="rgb(89.480591%, 2.723694%, 47.694397%)" stop-opacity="1"/>
<stop offset="0.25" stop-color="rgb(89.535522%, 2.80304%, 47.343445%)" stop-opacity="1"/>
<stop offset="0.253906" stop-color="rgb(89.633179%, 2.885437%, 46.940613%)" stop-opacity="1"/>
<stop offset="0.257812" stop-color="rgb(89.730835%, 2.967834%, 46.537781%)" stop-opacity="1"/>
<stop offset="0.261719" stop-color="rgb(89.736938%, 3.085327%, 46.089172%)" stop-opacity="1"/>
<stop offset="0.265625" stop-color="rgb(89.741516%, 3.20282%, 45.640564%)" stop-opacity="1"/>
<stop offset="0.269531" stop-color="rgb(89.756775%, 3.450012%, 45.300293%)" stop-opacity="1"/>
<stop offset="0.273438" stop-color="rgb(89.770508%, 3.695679%, 44.958496%)" stop-opacity="1"/>
<stop offset="0.277344" stop-color="rgb(89.878845%, 4.020691%, 44.696045%)" stop-opacity="1"/>
<stop offset="0.28125" stop-color="rgb(89.984131%, 4.345703%, 44.430542%)" stop-opacity="1"/>
<stop offset="0.285156" stop-color="rgb(90.058899%, 4.577637%, 44.117737%)" stop-opacity="1"/>
<stop offset="0.289062" stop-color="rgb(90.133667%, 4.808044%, 43.80188%)" stop-opacity="1"/>
<stop offset="0.292969" stop-color="rgb(90.139771%, 4.943848%, 43.421936%)" stop-opacity="1"/>
<stop offset="0.296875" stop-color="rgb(90.1474%, 5.079651%, 43.040466%)" stop-opacity="1"/>
<stop offset="0.300781" stop-color="rgb(90.162659%, 5.325317%, 42.69104%)" stop-opacity="1"/>
<stop offset="0.304688" stop-color="rgb(90.179443%, 5.570984%, 42.340088%)" stop-opacity="1"/>
<stop offset="0.308594" stop-color="rgb(90.310669%, 5.776978%, 42.045593%)" stop-opacity="1"/>
<stop offset="0.3125" stop-color="rgb(90.441895%, 5.982971%, 41.749573%)" stop-opacity="1"/>
<stop offset="0.316406" stop-color="rgb(90.483093%, 6.219482%, 41.40625%)" stop-opacity="1"/>
<stop offset="0.320312" stop-color="rgb(90.524292%, 6.454468%, 41.061401%)" stop-opacity="1"/>
<stop offset="0.324219" stop-color="rgb(90.608215%, 6.764221%, 40.716553%)" stop-opacity="1"/>
<stop offset="0.328125" stop-color="rgb(90.690613%, 7.0755%, 40.368652%)" stop-opacity="1"/>
<stop offset="0.332031" stop-color="rgb(90.794373%, 7.411194%, 40.005493%)" stop-opacity="1"/>
<stop offset="0.335938" stop-color="rgb(90.899658%, 7.746887%, 39.63623%)" stop-opacity="1"/>
<stop offset="0.339844" stop-color="rgb(90.914917%, 8.01239%, 39.205933%)" stop-opacity="1"/>
<stop offset="0.34375" stop-color="rgb(90.931702%, 8.277893%, 38.771057%)" stop-opacity="1"/>
<stop offset="0.347656" stop-color="rgb(90.956116%, 8.665466%, 38.42926%)" stop-opacity="1"/>
<stop offset="0.351562" stop-color="rgb(90.982056%, 9.051514%, 38.082886%)" stop-opacity="1"/>
<stop offset="0.355469" stop-color="rgb(91.094971%, 9.301758%, 37.702942%)" stop-opacity="1"/>
<stop offset="0.359375" stop-color="rgb(91.20636%, 9.552002%, 37.319946%)" stop-opacity="1"/>
<stop offset="0.363281" stop-color="rgb(91.27655%, 9.867859%, 36.950684%)" stop-opacity="1"/>
<stop offset="0.367188" stop-color="rgb(91.348267%, 10.180664%, 36.576843%)" stop-opacity="1"/>
<stop offset="0.371094" stop-color="rgb(91.416931%, 10.610962%, 36.198425%)" stop-opacity="1"/>
<stop offset="0.375" stop-color="rgb(91.485596%, 11.039734%, 35.81543%)" stop-opacity="1"/>
<stop offset="0.378906" stop-color="rgb(91.627502%, 11.550903%, 35.389709%)" stop-opacity="1"/>
<stop offset="0.382812" stop-color="rgb(91.769409%, 12.060547%, 34.957886%)" stop-opacity="1"/>
<stop offset="0.386719" stop-color="rgb(91.795349%, 12.454224%, 34.507751%)" stop-opacity="1"/>
<stop offset="0.390625" stop-color="rgb(91.821289%, 12.846375%, 34.054565%)" stop-opacity="1"/>
<stop offset="0.394531" stop-color="rgb(91.845703%, 13.214111%, 33.718872%)" stop-opacity="1"/>
<stop offset="0.398438" stop-color="rgb(91.870117%, 13.578796%, 33.380127%)" stop-opacity="1"/>
<stop offset="0.402344" stop-color="rgb(91.969299%, 13.938904%, 33.009338%)" stop-opacity="1"/>
<stop offset="0.40625" stop-color="rgb(92.068481%, 14.297485%, 32.633972%)" stop-opacity="1"/>
<stop offset="0.410156" stop-color="rgb(92.167664%, 14.674377%, 32.171631%)" stop-opacity="1"/>
<stop offset="0.414062" stop-color="rgb(92.266846%, 15.049744%, 31.706238%)" stop-opacity="1"/>
<stop offset="0.417969" stop-color="rgb(92.295837%, 15.486145%, 31.185913%)" stop-opacity="1"/>
<stop offset="0.421875" stop-color="rgb(92.324829%, 15.919495%, 30.662537%)" stop-opacity="1"/>
<stop offset="0.425781" stop-color="rgb(92.370605%, 16.557312%, 30.34668%)" stop-opacity="1"/>
<stop offset="0.429688" stop-color="rgb(92.416382%, 17.192078%, 30.023193%)" stop-opacity="1"/>
<stop offset="0.433594" stop-color="rgb(92.454529%, 17.713928%, 29.61731%)" stop-opacity="1"/>
<stop offset="0.4375" stop-color="rgb(92.49115%, 18.232727%, 29.205322%)" stop-opacity="1"/>
<stop offset="0.441406" stop-color="rgb(92.510986%, 18.534851%, 28.868103%)" stop-opacity="1"/>
<stop offset="0.445312" stop-color="rgb(92.532349%, 18.835449%, 28.527832%)" stop-opacity="1"/>
<stop offset="0.449219" stop-color="rgb(92.553711%, 19.148254%, 28.237915%)" stop-opacity="1"/>
<stop offset="0.453125" stop-color="rgb(92.576599%, 19.46106%, 27.946472%)" stop-opacity="1"/>
<stop offset="0.457031" stop-color="rgb(92.61322%, 19.967651%, 27.635193%)" stop-opacity="1"/>
<stop offset="0.460937" stop-color="rgb(92.649841%, 20.471191%, 27.319336%)" stop-opacity="1"/>
<stop offset="0.464844" stop-color="rgb(92.695618%, 21.110535%, 26.876831%)" stop-opacity="1"/>
<stop offset="0.46875" stop-color="rgb(92.741394%, 21.7453%, 26.426697%)" stop-opacity="1"/>
<stop offset="0.472656" stop-color="rgb(92.778015%, 22.24884%, 25.965881%)" stop-opacity="1"/>
<stop offset="0.476562" stop-color="rgb(92.814636%, 22.750854%, 25.498962%)" stop-opacity="1"/>
<stop offset="0.480469" stop-color="rgb(92.855835%, 23.33374%, 25.085449%)" stop-opacity="1"/>
<stop offset="0.484375" stop-color="rgb(92.89856%, 23.912048%, 24.665833%)" stop-opacity="1"/>
<stop offset="0.488281" stop-color="rgb(92.991638%, 24.383545%, 24.333191%)" stop-opacity="1"/>
<stop offset="0.492188" stop-color="rgb(93.083191%, 24.855042%, 23.995972%)" stop-opacity="1"/>
<stop offset="0.496094" stop-color="rgb(93.203735%, 25.196838%, 23.719788%)" stop-opacity="1"/>
<stop offset="0.5" stop-color="rgb(93.32428%, 25.538635%, 23.440552%)" stop-opacity="1"/>
<stop offset="0.503906" stop-color="rgb(93.359375%, 26.000977%, 23.10791%)" stop-opacity="1"/>
<stop offset="0.507812" stop-color="rgb(93.392944%, 26.461792%, 22.770691%)" stop-opacity="1"/>
<stop offset="0.511719" stop-color="rgb(93.31665%, 27.062988%, 22.442627%)" stop-opacity="1"/>
<stop offset="0.515625" stop-color="rgb(93.240356%, 27.661133%, 22.111511%)" stop-opacity="1"/>
<stop offset="0.519531" stop-color="rgb(93.254089%, 28.256226%, 21.765137%)" stop-opacity="1"/>
<stop offset="0.523438" stop-color="rgb(93.266296%, 28.849792%, 21.412659%)" stop-opacity="1"/>
<stop offset="0.527344" stop-color="rgb(93.310547%, 29.447937%, 21.008301%)" stop-opacity="1"/>
<stop offset="0.53125" stop-color="rgb(93.354797%, 30.041504%, 20.596313%)" stop-opacity="1"/>
<stop offset="0.535156" stop-color="rgb(93.432617%, 30.601501%, 20.158386%)" stop-opacity="1"/>
<stop offset="0.539062" stop-color="rgb(93.508911%, 31.159973%, 19.714355%)" stop-opacity="1"/>
<stop offset="0.542969" stop-color="rgb(93.663025%, 31.608582%, 19.322205%)" stop-opacity="1"/>
<stop offset="0.546875" stop-color="rgb(93.818665%, 32.05719%, 18.925476%)" stop-opacity="1"/>
<stop offset="0.550781" stop-color="rgb(93.852234%, 32.507324%, 18.544006%)" stop-opacity="1"/>
<stop offset="0.554688" stop-color="rgb(93.887329%, 32.954407%, 18.157959%)" stop-opacity="1"/>
<stop offset="0.558594" stop-color="rgb(93.928528%, 33.494568%, 17.904663%)" stop-opacity="1"/>
<stop offset="0.5625" stop-color="rgb(93.971252%, 34.031677%, 17.648315%)" stop-opacity="1"/>
<stop offset="0.566406" stop-color="rgb(94.013977%, 34.587097%, 17.475891%)" stop-opacity="1"/>
<stop offset="0.570313" stop-color="rgb(94.058228%, 35.140991%, 17.303467%)" stop-opacity="1"/>
<stop offset="0.574219" stop-color="rgb(94.10553%, 35.743713%, 17.077637%)" stop-opacity="1"/>
<stop offset="0.578125" stop-color="rgb(94.152832%, 36.343384%, 16.850281%)" stop-opacity="1"/>
<stop offset="0.582031" stop-color="rgb(94.206238%, 37.046814%, 16.40625%)" stop-opacity="1"/>
<stop offset="0.585938" stop-color="rgb(94.261169%, 37.748718%, 15.956116%)" stop-opacity="1"/>
<stop offset="0.589844" stop-color="rgb(94.306946%, 38.340759%, 15.335083%)" stop-opacity="1"/>
<stop offset="0.59375" stop-color="rgb(94.352722%, 38.929749%, 14.706421%)" stop-opacity="1"/>
<stop offset="0.597656" stop-color="rgb(94.290161%, 39.506531%, 14.170837%)" stop-opacity="1"/>
<stop offset="0.601562" stop-color="rgb(94.226074%, 40.080261%, 13.630676%)" stop-opacity="1"/>
<stop offset="0.605469" stop-color="rgb(94.218445%, 40.638733%, 13.265991%)" stop-opacity="1"/>
<stop offset="0.609375" stop-color="rgb(94.20929%, 41.194153%, 12.896729%)" stop-opacity="1"/>
<stop offset="0.613281" stop-color="rgb(94.252014%, 41.743469%, 12.634277%)" stop-opacity="1"/>
<stop offset="0.617188" stop-color="rgb(94.294739%, 42.29126%, 12.368774%)" stop-opacity="1"/>
<stop offset="0.621094" stop-color="rgb(94.338989%, 42.857361%, 12.075806%)" stop-opacity="1"/>
<stop offset="0.625" stop-color="rgb(94.38324%, 43.42041%, 11.779785%)" stop-opacity="1"/>
<stop offset="0.628906" stop-color="rgb(94.436646%, 44.114685%, 11.286926%)" stop-opacity="1"/>
<stop offset="0.632812" stop-color="rgb(94.491577%, 44.805908%, 10.787964%)" stop-opacity="1"/>
<stop offset="0.636719" stop-color="rgb(94.535828%, 45.381165%, 10.299683%)" stop-opacity="1"/>
<stop offset="0.640625" stop-color="rgb(94.581604%, 45.951843%, 9.806824%)" stop-opacity="1"/>
<stop offset="0.644531" stop-color="rgb(94.709778%, 46.502686%, 9.494019%)" stop-opacity="1"/>
<stop offset="0.648438" stop-color="rgb(94.836426%, 47.052002%, 9.176636%)" stop-opacity="1"/>
<stop offset="0.652344" stop-color="rgb(94.963074%, 47.640991%, 9.048462%)" stop-opacity="1"/>
<stop offset="0.65625" stop-color="rgb(95.089722%, 48.231506%, 8.918762%)" stop-opacity="1"/>
<stop offset="0.660156" stop-color="rgb(95.144653%, 48.912048%, 8.868408%)" stop-opacity="1"/>
<stop offset="0.664062" stop-color="rgb(95.199585%, 49.59259%, 8.816528%)" stop-opacity="1"/>
<stop offset="0.667969" stop-color="rgb(95.263672%, 50.398254%, 8.476257%)" stop-opacity="1"/>
<stop offset="0.671875" stop-color="rgb(95.327759%, 51.202393%, 8.132935%)" stop-opacity="1"/>
<stop offset="0.675781" stop-color="rgb(95.373535%, 51.756287%, 7.926941%)" stop-opacity="1"/>
<stop offset="0.679688" stop-color="rgb(95.417786%, 52.311707%, 7.719421%)" stop-opacity="1"/>
<stop offset="0.683594" stop-color="rgb(95.46051%, 52.841187%, 7.598877%)" stop-opacity="1"/>
<stop offset="0.6875" stop-color="rgb(95.503235%, 53.372192%, 7.476807%)" stop-opacity="1"/>
<stop offset="0.691406" stop-color="rgb(95.489502%, 53.953552%, 7.345581%)" stop-opacity="1"/>
<stop offset="0.695312" stop-color="rgb(95.477295%, 54.534912%, 7.21283%)" stop-opacity="1"/>
<stop offset="0.699219" stop-color="rgb(95.419312%, 55.157471%, 7.044983%)" stop-opacity="1"/>
<stop offset="0.703125" stop-color="rgb(95.359802%, 55.778503%, 6.87561%)" stop-opacity="1"/>
<stop offset="0.707031" stop-color="rgb(95.402527%, 56.306458%, 6.788635%)" stop-opacity="1"/>
<stop offset="0.710938" stop-color="rgb(95.443726%, 56.832886%, 6.70166%)" stop-opacity="1"/>
<stop offset="0.714844" stop-color="rgb(95.495605%, 57.487488%, 6.593323%)" stop-opacity="1"/>
<stop offset="0.71875" stop-color="rgb(95.547485%, 58.14209%, 6.484985%)" stop-opacity="1"/>
<stop offset="0.722656" stop-color="rgb(95.591736%, 58.705139%, 6.391907%)" stop-opacity="1"/>
<stop offset="0.726562" stop-color="rgb(95.637512%, 59.268188%, 6.298828%)" stop-opacity="1"/>
<stop offset="0.730469" stop-color="rgb(95.678711%, 59.796143%, 6.211853%)" stop-opacity="1"/>
<stop offset="0.734375" stop-color="rgb(95.721436%, 60.322571%, 6.124878%)" stop-opacity="1"/>
<stop offset="0.738281" stop-color="rgb(95.732117%, 60.877991%, 6.040955%)" stop-opacity="1"/>
<stop offset="0.742187" stop-color="rgb(95.741272%, 61.431885%, 5.957031%)" stop-opacity="1"/>
<stop offset="0.746094" stop-color="rgb(95.652771%, 62.068176%, 5.883789%)" stop-opacity="1"/>
<stop offset="0.75" stop-color="rgb(95.56427%, 62.701416%, 5.810547%)" stop-opacity="1"/>
<stop offset="0.753906" stop-color="rgb(95.605469%, 63.227844%, 5.725098%)" stop-opacity="1"/>
<stop offset="0.757813" stop-color="rgb(95.646667%, 63.752747%, 5.638123%)" stop-opacity="1"/>
<stop offset="0.761719" stop-color="rgb(95.687866%, 64.279175%, 5.551147%)" stop-opacity="1"/>
<stop offset="0.765625" stop-color="rgb(95.729065%, 64.805603%, 5.465698%)" stop-opacity="1"/>
<stop offset="0.769531" stop-color="rgb(95.770264%, 65.332031%, 5.378723%)" stop-opacity="1"/>
<stop offset="0.773438" stop-color="rgb(95.811462%, 65.858459%, 5.291748%)" stop-opacity="1"/>
<stop offset="0.777344" stop-color="rgb(95.852661%, 66.384888%, 5.206299%)" stop-opacity="1"/>
<stop offset="0.78125" stop-color="rgb(95.89386%, 66.90979%, 5.119324%)" stop-opacity="1"/>
<stop offset="0.785156" stop-color="rgb(95.927429%, 67.436218%, 5.033875%)" stop-opacity="1"/>
<stop offset="0.789062" stop-color="rgb(95.962524%, 67.961121%, 4.949951%)" stop-opacity="1"/>
<stop offset="0.792969" stop-color="rgb(95.858765%, 68.460083%, 4.901123%)" stop-opacity="1"/>
<stop offset="0.796875" stop-color="rgb(95.755005%, 68.955994%, 4.853821%)" stop-opacity="1"/>
<stop offset="0.800781" stop-color="rgb(95.776367%, 69.584656%, 4.75769%)" stop-opacity="1"/>
<stop offset="0.804688" stop-color="rgb(95.797729%, 70.210266%, 4.66156%)" stop-opacity="1"/>
<stop offset="0.808594" stop-color="rgb(95.84198%, 70.791626%, 4.566956%)" stop-opacity="1"/>
<stop offset="0.8125" stop-color="rgb(95.887756%, 71.372986%, 4.470825%)" stop-opacity="1"/>
<stop offset="0.816406" stop-color="rgb(95.930481%, 71.942139%, 4.377747%)" stop-opacity="1"/>
<stop offset="0.820312" stop-color="rgb(95.974731%, 72.511292%, 4.284668%)" stop-opacity="1"/>
<stop offset="0.824219" stop-color="rgb(96.020508%, 73.104858%, 4.188538%)" stop-opacity="1"/>
<stop offset="0.828125" stop-color="rgb(96.066284%, 73.698425%, 4.090881%)" stop-opacity="1"/>
<stop offset="0.84375" stop-color="rgb(96.066284%, 73.698425%, 4.090881%)" stop-opacity="1"/>
<stop offset="0.875" stop-color="rgb(96.066284%, 73.698425%, 4.090881%)" stop-opacity="1"/>
<stop offset="1" stop-color="rgb(96.066284%, 73.698425%, 4.090881%)" stop-opacity="1"/>
</linearGradient>
</defs>
<rect x="-250" y="-250" width="3000" height="3000" fill="rgb(100%, 100%, 100%)" fill-opacity="1"/>
<g clip-path="url(#clip-0)">
<g clip-path="url(#clip-1)">
<path fill-rule="nonzero" fill="url(#linear-pattern-0)" d="M 916.1875 1293.738281 L 1416.019531 1564.78125 L 1685.5 1067.828125 L 1185.667969 796.789062 Z M 916.1875 1293.738281 "/>
</g>
</g>
<path fill-rule="evenodd" fill="rgb(12.841797%, 9.616089%, 8.746338%)" fill-opacity="1" d="M 721.191406 1209.261719 C 810.632812 997.199219 1017.851562 858.851562 1248 857.53125 C 1478.148438 856.199219 1686.941406 992.160156 1778.808594 1203.179688 C 1693.589844 1038.550781 1523.171875 935.671875 1337.789062 936.960938 C 1182.808594 938.03125 1039.308594 1011.761719 947.945312 1132.789062 L 1062.828125 1206.308594 C 948.003906 1207.300781 836.191406 1209.261719 721.191406 1209.261719 "/>
<path fill-rule="evenodd" fill="rgb(6.266785%, 5.734253%, 5.047607%)" fill-opacity="1" d="M 747.460938 1425.300781 L 709.851562 1512.351562 L 672.769531 1425.300781 L 642.300781 1425.300781 L 694.882812 1547.171875 L 722.738281 1547.171875 L 775.488281 1425.300781 L 747.460938 1425.300781 "/>
<path fill-rule="evenodd" fill="rgb(6.266785%, 5.734253%, 5.047607%)" fill-opacity="1" d="M 785.589844 1547.171875 L 813.789062 1547.171875 L 813.789062 1425.300781 L 785.589844 1425.300781 L 785.589844 1547.171875 "/>
<path fill-rule="evenodd" fill="rgb(6.266785%, 5.734253%, 5.047607%)" fill-opacity="1" d="M 882.734375 1549.261719 C 917.554688 1549.261719 934.441406 1531.851562 934.441406 1511.511719 C 934.441406 1466.761719 863.585938 1482.289062 863.585938 1459.800781 C 863.585938 1452.109375 870.027344 1445.839844 886.738281 1445.839844 C 897.535156 1445.839844 909.199219 1448.980469 920.515625 1455.421875 L 929.21875 1434 C 917.902344 1426.871094 902.234375 1423.210938 886.914062 1423.210938 C 852.269531 1423.210938 835.554688 1440.449219 835.554688 1461.191406 C 835.554688 1506.460938 906.414062 1490.789062 906.414062 1513.601562 C 906.414062 1521.050781 899.621094 1526.628906 882.910156 1526.628906 C 868.285156 1526.628906 852.964844 1521.398438 842.691406 1513.949219 L 833.117188 1535.160156 C 843.910156 1543.511719 863.410156 1549.261719 882.734375 1549.261719 "/>
<path fill-rule="evenodd" fill="rgb(6.266785%, 5.734253%, 5.047607%)" fill-opacity="1" d="M 953.769531 1547.171875 L 981.972656 1547.171875 L 981.972656 1425.300781 L 953.769531 1425.300781 L 953.769531 1547.171875 "/>
<path fill-rule="evenodd" fill="rgb(6.266785%, 5.734253%, 5.047607%)" fill-opacity="1" d="M 1069.890625 1525.230469 C 1048.128906 1525.230469 1031.769531 1509.390625 1031.769531 1486.230469 C 1031.769531 1463.078125 1048.128906 1447.238281 1069.890625 1447.238281 C 1091.660156 1447.238281 1108.019531 1463.078125 1108.019531 1486.230469 C 1108.019531 1509.390625 1091.660156 1525.230469 1069.890625 1525.230469 Z M 1069.890625 1549.261719 C 1108.199219 1549.261719 1136.570312 1522.621094 1136.570312 1486.230469 C 1136.570312 1449.851562 1108.199219 1423.210938 1069.890625 1423.210938 C 1031.421875 1423.210938 1003.210938 1450.019531 1003.210938 1486.230469 C 1003.210938 1522.449219 1031.421875 1549.261719 1069.890625 1549.261719 "/>
<path fill-rule="evenodd" fill="rgb(6.266785%, 5.734253%, 5.047607%)" fill-opacity="1" d="M 1241.730469 1425.300781 L 1241.730469 1499.289062 L 1181.140625 1425.300781 L 1157.808594 1425.300781 L 1157.808594 1547.171875 L 1185.671875 1547.171875 L 1185.671875 1473.179688 L 1246.429688 1547.171875 L 1269.589844 1547.171875 L 1269.589844 1425.300781 L 1241.730469 1425.300781 "/>
<path fill-rule="evenodd" fill="rgb(6.266785%, 5.734253%, 5.047607%)" fill-opacity="1" d="M 1347.761719 1547.171875 L 1437.070312 1547.171875 L 1437.070312 1524.191406 L 1375.960938 1524.191406 L 1375.960938 1425.300781 L 1347.761719 1425.300781 L 1347.761719 1547.171875 "/>
<path fill-rule="evenodd" fill="rgb(6.266785%, 5.734253%, 5.047607%)" fill-opacity="1" d="M 1509.851562 1525.230469 C 1488.078125 1525.230469 1471.71875 1509.390625 1471.71875 1486.230469 C 1471.71875 1463.078125 1488.078125 1447.238281 1509.851562 1447.238281 C 1531.609375 1447.238281 1547.96875 1463.078125 1547.96875 1486.230469 C 1547.96875 1509.390625 1531.609375 1525.230469 1509.851562 1525.230469 Z M 1509.851562 1549.261719 C 1548.148438 1549.261719 1576.53125 1522.621094 1576.53125 1486.230469 C 1576.53125 1449.851562 1548.148438 1423.210938 1509.851562 1423.210938 C 1471.371094 1423.210938 1443.171875 1450.019531 1443.171875 1486.230469 C 1443.171875 1522.449219 1471.371094 1549.261719 1509.851562 1549.261719 "/>
<path fill-rule="evenodd" fill="rgb(6.266785%, 5.734253%, 5.047607%)" fill-opacity="1" d="M 1680.121094 1520.011719 C 1672.980469 1523.839844 1665.839844 1525.230469 1658.179688 1525.230469 C 1634.851562 1525.230469 1618.660156 1509.039062 1618.660156 1486.230469 C 1618.660156 1463.078125 1634.851562 1447.238281 1658.53125 1447.238281 C 1670.890625 1447.238281 1681.160156 1451.589844 1690.039062 1460.988281 L 1708.148438 1444.28125 C 1696.308594 1430.519531 1678.550781 1423.210938 1657.140625 1423.210938 C 1618.308594 1423.210938 1590.109375 1449.5 1590.109375 1486.230469 C 1590.109375 1522.96875 1618.308594 1549.261719 1656.609375 1549.261719 C 1674.019531 1549.261719 1692.480469 1543.859375 1705.878906 1533.761719 L 1705.878906 1484.320312 L 1680.121094 1484.320312 L 1680.121094 1520.011719 "/>
<path fill-rule="evenodd" fill="rgb(6.266785%, 5.734253%, 5.047607%)" fill-opacity="1" d="M 1791.019531 1525.230469 C 1769.25 1525.230469 1752.890625 1509.390625 1752.890625 1486.230469 C 1752.890625 1463.078125 1769.25 1447.238281 1791.019531 1447.238281 C 1812.78125 1447.238281 1829.148438 1463.078125 1829.148438 1486.230469 C 1829.148438 1509.390625 1812.78125 1525.230469 1791.019531 1525.230469 Z M 1791.019531 1549.261719 C 1829.320312 1549.261719 1857.699219 1522.621094 1857.699219 1486.230469 C 1857.699219 1449.851562 1829.320312 1423.210938 1791.019531 1423.210938 C 1752.539062 1423.210938 1724.339844 1450.019531 1724.339844 1486.230469 C 1724.339844 1522.449219 1752.539062 1549.261719 1791.019531 1549.261719 "/>
<path fill-rule="evenodd" fill="rgb(6.266785%, 5.734253%, 5.047607%)" fill-opacity="1" d="M 910.671875 1641.710938 L 921.136719 1641.710938 L 921.136719 1605.019531 L 935.601562 1605.019531 L 935.601562 1596.5 L 896.203125 1596.5 L 896.203125 1605.019531 L 910.671875 1605.019531 L 910.671875 1641.710938 "/>
<path fill-rule="evenodd" fill="rgb(6.266785%, 5.734253%, 5.047607%)" fill-opacity="1" d="M 972.523438 1624.078125 L 979.695312 1606.769531 L 986.863281 1624.078125 Z M 994.160156 1641.710938 L 1005.140625 1641.710938 L 984.925781 1596.5 L 974.589844 1596.5 L 954.4375 1641.710938 L 965.160156 1641.710938 L 969.164062 1632.019531 L 990.15625 1632.019531 L 994.160156 1641.710938 "/>
<path fill-rule="evenodd" fill="rgb(6.266785%, 5.734253%, 5.047607%)" fill-opacity="1" d="M 1061.179688 1631.628906 C 1058.53125 1633.050781 1055.890625 1633.570312 1053.039062 1633.570312 C 1044.390625 1633.570312 1038.378906 1627.558594 1038.378906 1619.101562 C 1038.378906 1610.511719 1044.390625 1604.628906 1053.171875 1604.628906 C 1057.761719 1604.628906 1061.570312 1606.25 1064.859375 1609.738281 L 1071.578125 1603.539062 C 1067.191406 1598.429688 1060.601562 1595.71875 1052.660156 1595.71875 C 1038.25 1595.71875 1027.789062 1605.46875 1027.789062 1619.101562 C 1027.789062 1632.730469 1038.25 1642.480469 1052.460938 1642.480469 C 1058.921875 1642.480469 1065.769531 1640.480469 1070.738281 1636.738281 L 1070.738281 1618.390625 L 1061.179688 1618.390625 L 1061.179688 1631.628906 "/>
<path fill-rule="evenodd" fill="rgb(6.266785%, 5.734253%, 5.047607%)" fill-opacity="1" d="M 1101.851562 1641.710938 L 1134.980469 1641.710938 L 1134.980469 1633.179688 L 1112.308594 1633.179688 L 1112.308594 1596.5 L 1101.851562 1596.5 L 1101.851562 1641.710938 "/>
<path fill-rule="evenodd" fill="rgb(6.266785%, 5.734253%, 5.047607%)" fill-opacity="1" d="M 1162.28125 1641.710938 L 1172.738281 1641.710938 L 1172.738281 1596.5 L 1162.28125 1596.5 L 1162.28125 1641.710938 "/>
<path fill-rule="evenodd" fill="rgb(6.266785%, 5.734253%, 5.047607%)" fill-opacity="1" d="M 1236.019531 1596.5 L 1236.019531 1623.949219 L 1213.539062 1596.5 L 1204.890625 1596.5 L 1204.890625 1641.710938 L 1215.21875 1641.710938 L 1215.21875 1614.261719 L 1237.761719 1641.710938 L 1246.351562 1641.710938 L 1246.351562 1596.5 L 1236.019531 1596.5 "/>
<path fill-rule="evenodd" fill="rgb(6.266785%, 5.734253%, 5.047607%)" fill-opacity="1" d="M 1288.890625 1633.308594 L 1288.890625 1622.851562 L 1309.878906 1622.851562 L 1309.878906 1614.710938 L 1288.890625 1614.710938 L 1288.890625 1604.890625 L 1312.660156 1604.890625 L 1312.660156 1596.5 L 1278.488281 1596.5 L 1278.488281 1641.710938 L 1313.5 1641.710938 L 1313.5 1633.308594 L 1288.890625 1633.308594 "/>
<path fill-rule="evenodd" fill="rgb(6.266785%, 5.734253%, 5.047607%)" fill-opacity="1" d="M 1392.53125 1596.5 L 1392.53125 1614.320312 L 1371.988281 1614.320312 L 1371.988281 1596.5 L 1361.53125 1596.5 L 1361.53125 1641.710938 L 1371.988281 1641.710938 L 1371.988281 1623.171875 L 1392.53125 1623.171875 L 1392.53125 1641.710938 L 1403 1641.710938 L 1403 1596.5 L 1392.53125 1596.5 "/>
<path fill-rule="evenodd" fill="rgb(6.266785%, 5.734253%, 5.047607%)" fill-opacity="1" d="M 1445.539062 1633.308594 L 1445.539062 1622.851562 L 1466.53125 1622.851562 L 1466.53125 1614.710938 L 1445.539062 1614.710938 L 1445.539062 1604.890625 L 1469.308594 1604.890625 L 1469.308594 1596.5 L 1435.140625 1596.5 L 1435.140625 1641.710938 L 1470.148438 1641.710938 L 1470.148438 1633.308594 L 1445.539062 1633.308594 "/>
<path fill-rule="evenodd" fill="rgb(6.266785%, 5.734253%, 5.047607%)" fill-opacity="1" d="M 1528.511719 1612.898438 C 1528.511719 1617.808594 1525.28125 1620.78125 1518.890625 1620.78125 L 1510.359375 1620.78125 L 1510.359375 1605.019531 L 1518.890625 1605.019531 C 1525.28125 1605.019531 1528.511719 1607.929688 1528.511719 1612.898438 Z M 1539.941406 1641.710938 L 1529.800781 1627.179688 C 1535.679688 1624.660156 1539.101562 1619.679688 1539.101562 1612.898438 C 1539.101562 1602.761719 1531.550781 1596.5 1519.46875 1596.5 L 1499.898438 1596.5 L 1499.898438 1641.710938 L 1510.359375 1641.710938 L 1510.359375 1629.109375 L 1519.980469 1629.109375 L 1528.699219 1641.710938 L 1539.941406 1641.710938 "/>
<path fill-rule="evenodd" fill="rgb(6.266785%, 5.734253%, 5.047607%)" fill-opacity="1" d="M 1579.191406 1633.308594 L 1579.191406 1622.851562 L 1600.179688 1622.851562 L 1600.179688 1614.710938 L 1579.191406 1614.710938 L 1579.191406 1604.890625 L 1602.960938 1604.890625 L 1602.960938 1596.5 L 1568.789062 1596.5 L 1568.789062 1641.710938 L 1603.800781 1641.710938 L 1603.800781 1633.308594 L 1579.191406 1633.308594 "/>
</svg>
